<?xml version="1.0" standalone="no"?>
<!DOCTYPE svg PUBLIC "-//W3C//DTD SVG 20010904//EN"
 "http://www.w3.org/TR/2001/REC-SVG-20010904/DTD/svg10.dtd">
<svg version="1.0" xmlns="http://www.w3.org/2000/svg"
 width="699.000000pt" height="694.000000pt" viewBox="0 0 699.000000 694.000000"
 preserveAspectRatio="xMidYMid meet">

<g transform="translate(0.000000,694.000000) scale(0.100000,-0.100000)"
fill="#000000" stroke="none">
<path d="M3335 5562 c-168 -50 -306 -187 -357 -355 -17 -57 -20 -87 -16 -176
l4 -107 -75 -44 c-88 -53 -258 -216 -318 -305 -87 -130 -150 -281 -178 -427
-8 -43 -19 -88 -25 -98 -18 -33 -37 -23 -43 21 -6 48 -31 79 -63 79 -28 0 -54
-25 -54 -51 0 -21 40 -67 74 -86 12 -7 17 -17 13 -27 -6 -14 -11 -13 -44 10
-51 34 -117 31 -146 -7 -48 -65 44 -114 140 -74 43 18 43 18 43 3 0 -7 -17
-22 -37 -33 -20 -11 -46 -33 -57 -48 l-21 -29 28 -24 c15 -13 35 -24 43 -24
23 0 63 49 70 86 3 19 12 34 20 34 21 0 40 -47 58 -141 85 -452 426 -797 886
-895 100 -21 320 -21 420 1 458 96 802 443 886 892 18 96 37 143 58 143 8 0
17 -15 20 -34 7 -35 49 -86 72 -86 7 0 25 10 39 23 24 20 25 25 15 49 -7 15
-32 37 -56 50 -24 13 -44 29 -44 35 0 16 0 16 43 -2 96 -40 188 9 139 74 -16
22 -27 26 -69 26 -34 -1 -58 -7 -81 -24 -29 -20 -33 -21 -39 -5 -4 11 1 20 13
27 66 37 95 105 53 127 -46 25 -96 -13 -101 -77 -3 -37 -22 -43 -38 -13 -6 10
-17 56 -26 101 -56 294 -250 577 -501 732 l-83 50 0 46 c-1 113 -48 268 -99
321 -20 21 -46 60 -57 87 -56 137 -326 229 -509 175z m482 -432 c59 -99 75
-160 80 -310 6 -156 -9 -258 -58 -398 -114 -324 -336 -410 -552 -212 -113 103
-190 328 -191 560 -1 118 1 128 27 182 33 67 89 118 172 158 102 48 274 79
419 76 l70 -1 33 -55z m-833 -267 c-22 -7 -129 -83 -182 -128 -234 -201 -363
-481 -362 -788 0 -193 26 -310 106 -472 219 -444 725 -675 1205 -552 237 61
447 205 588 403 76 107 99 151 140 268 73 207 79 442 15 656 -64 219 -236 442
-441 574 -50 32 -70 51 -67 61 4 8 10 15 14 15 4 0 43 -23 86 -51 243 -159
427 -437 475 -717 14 -82 32 -120 62 -127 28 -7 58 -56 46 -77 -5 -9 -20 -19
-34 -22 -32 -8 -53 -50 -71 -144 -19 -102 -58 -221 -102 -307 -211 -421 -680
-665 -1137 -590 -457 74 -813 419 -905 876 -23 117 -41 156 -75 165 -14 3 -29
13 -34 21 -12 22 16 73 40 73 29 0 50 42 70 139 34 165 87 292 181 428 63 91
195 219 295 284 69 45 78 48 86 32 7 -11 7 -18 1 -20z m15 -92 c-12 -9 -19
-25 -19 -48 0 -53 57 -188 101 -239 21 -25 39 -52 39 -60 0 -24 65 -159 96
-199 23 -31 27 -44 26 -103 -1 -135 -56 -244 -141 -279 -19 -8 -109 -24 -200
-34 -91 -11 -193 -27 -226 -35 -60 -16 -134 -53 -155 -79 -21 -25 -27 -17 -41
53 -22 109 -17 320 10 426 44 169 97 277 207 414 68 85 124 136 229 206 l70
47 12 -28 c10 -24 9 -30 -8 -42z m1193 -90 c209 -195 319 -455 318 -750 -1
-103 -18 -232 -33 -248 -4 -3 -20 6 -38 21 -69 58 -136 77 -370 105 -156 18
-214 33 -249 63 -50 42 -87 139 -91 235 -2 42 2 57 18 75 31 34 76 115 108
193 15 39 49 115 75 170 59 122 84 206 77 252 l-6 33 62 -42 c33 -24 92 -72
129 -107z m-223 64 c-4 -23 -15 -58 -23 -76 -15 -33 -15 -32 -10 41 3 41 10
80 16 88 18 21 26 -4 17 -53z m-919 -35 c11 -22 25 -64 30 -93 6 -28 13 -60
16 -69 3 -10 2 -18 -3 -18 -12 0 -64 136 -70 183 -7 48 1 47 27 -3z m-745
-642 c4 -16 3 -28 -3 -28 -19 0 -62 42 -62 60 0 46 53 20 65 -32z m2435 32 c0
-17 -43 -60 -60 -60 -5 0 -7 8 -5 18 2 9 4 22 4 29 3 38 61 50 61 13z m-2501
-127 c23 -15 24 -16 6 -29 -21 -15 -92 -18 -114 -5 -17 11 -6 48 17 54 24 7
63 -2 91 -20z m2604 13 c21 -16 22 -42 1 -50 -44 -17 -132 2 -118 25 8 13 63
38 84 38 8 0 23 -6 33 -13z m-2553 -126 c0 -6 -7 -25 -16 -41 -11 -22 -21 -29
-37 -27 -34 5 -32 33 5 57 37 23 48 26 48 11z m2448 -10 c37 -23 40 -53 6 -58
-24 -3 -40 12 -49 51 -8 32 -1 34 43 7z"/>
<path d="M3195 4861 c-22 -10 -46 -25 -54 -34 -19 -23 -5 -21 26 3 31 24 102
27 163 5 50 -18 70 -19 70 -5 0 17 -82 50 -125 50 -22 0 -58 -9 -80 -19z"/>
<path d="M3685 4859 c-67 -23 -90 -38 -59 -40 41 -2 70 4 106 22 45 23 71 24
88 4 7 -8 17 -15 23 -15 6 0 2 9 -9 20 -30 30 -80 33 -149 9z"/>
<path d="M3741 4816 c-9 -10 -18 -13 -23 -8 -13 13 -70 -16 -62 -30 4 -7 2 -8
-4 -4 -13 8 -61 -23 -62 -38 0 -5 12 1 27 15 l27 24 -22 -29 c-32 -42 -28 -54
30 -71 74 -22 103 -19 140 13 18 16 42 32 52 36 14 5 16 10 8 18 -6 6 -8 17
-4 26 4 11 1 14 -11 9 -12 -4 -14 -2 -10 10 5 12 1 14 -15 9 -17 -6 -21 -4
-16 8 3 9 1 16 -5 16 -6 0 -11 -4 -11 -10 0 -17 -18 -11 -22 7 -3 15 -4 15
-17 -1z m-11 -82 c0 -8 -7 -14 -15 -14 -15 0 -21 21 -9 33 10 9 24 -2 24 -19z
m60 -3 c0 -3 -8 -11 -18 -18 -17 -10 -18 -8 -14 12 2 15 9 22 18 18 8 -3 14
-8 14 -12z m-115 -29 c-1 -1 -10 0 -19 4 -13 5 -14 9 -4 21 10 13 13 13 19 -4
3 -10 5 -19 4 -21z"/>
<path d="M3206 4784 c-42 -23 -16 -34 64 -27 50 4 74 2 98 -11 18 -9 32 -19
32 -22 0 -2 -9 0 -19 6 -11 5 -64 10 -119 10 -76 0 -102 -4 -112 -15 -10 -13
-9 -15 11 -16 13 0 18 -3 12 -6 -21 -8 -15 -26 7 -20 10 3 21 0 23 -7 3 -8 8
-8 18 2 18 17 30 15 23 -3 -4 -8 -1 -15 5 -15 6 0 11 4 11 10 0 5 14 7 31 5
19 -2 32 1 35 10 4 9 16 12 39 8 39 -6 62 20 41 48 -39 54 -140 75 -200 43z"/>
<path d="M3440 4465 c0 -3 16 -11 35 -19 31 -13 39 -13 71 0 20 8 34 18 30 21
-3 3 -19 0 -36 -7 -24 -10 -37 -10 -56 -1 -26 12 -44 14 -44 6z"/>
<path d="M3400 4332 c-19 -9 -37 -18 -39 -19 -3 -2 11 -17 30 -33 75 -64 152
-65 222 -4 l44 38 -36 17 c-48 21 -174 22 -221 1z"/>
<path d="M2115 2372 l-180 -2 0 -350 0 -350 50 0 50 0 -3 186 -4 187 99 -8
c54 -4 102 -8 107 -8 5 -1 12 12 16 30 l7 31 -113 -5 -114 -6 0 128 0 128 126
-6 125 -5 10 25 c5 14 8 26 7 27 -2 0 -84 0 -183 -2z"/>
<path d="M2943 2187 c-60 -22 -117 -72 -148 -128 -26 -47 -30 -64 -29 -129 0
-85 20 -135 76 -190 125 -125 356 -93 442 60 27 48 31 65 31 130 0 84 -22 139
-78 198 -60 62 -205 91 -294 59z m196 -55 c50 -40 80 -118 81 -207 0 -92 -15
-142 -54 -181 -85 -85 -216 -57 -279 61 -19 34 -22 57 -22 146 0 96 2 109 25
143 53 80 174 99 249 38z"/>
<path d="M3484 2193 l-50 -4 4 -202 c2 -111 0 -228 -6 -259 l-9 -58 52 0 51 0
-4 110 -5 110 44 0 44 -1 74 -109 75 -110 57 0 56 0 -33 35 c-59 63 -159 208
-146 213 29 9 71 55 82 88 22 66 -8 137 -72 170 -31 16 -130 24 -214 17z m149
-34 c35 -16 52 -54 51 -114 -2 -85 -44 -125 -130 -125 l-34 0 0 118 c0 65 3
122 7 125 10 11 80 8 106 -4z"/>
<path d="M4839 2192 l-45 -3 7 -52 c10 -67 10 -347 0 -414 l-7 -53 147 0 147
0 5 28 c3 15 5 28 4 29 -1 1 -22 -3 -47 -7 -25 -5 -71 -9 -102 -10 l-58 0 0
111 0 112 80 -7 c48 -4 80 -3 80 3 0 5 3 17 7 26 6 16 -1 17 -80 10 l-87 -7 0
102 0 102 95 -4 c94 -4 105 -1 105 32 0 8 -145 9 -251 2z"/>
<path d="M2401 2133 c4 -32 7 -123 7 -203 0 -80 -3 -171 -7 -202 l-7 -58 147
0 147 0 6 26 c4 15 5 28 3 30 -2 2 -28 0 -57 -6 -29 -5 -75 -10 -102 -10 l-49
0 3 240 3 240 -51 0 -50 0 7 -57z"/>
<path d="M3935 1930 l0 -260 50 0 50 0 0 260 0 260 -50 0 -50 0 0 -260z"/>
<path d="M4185 1930 l0 -260 30 0 30 0 -3 187 -3 188 48 -46 c26 -25 114 -110
195 -188 80 -79 150 -144 155 -144 4 -1 10 116 13 261 l5 262 -30 0 -30 0 3
-192 3 -193 -193 193 c-106 105 -200 192 -208 192 -13 0 -15 -36 -15 -260z"/>
<path d="M2903 1405 c-3 -9 -3 -18 0 -21 9 -9 27 6 27 22 0 19 -19 18 -27 -1z"/>
<path d="M2708 1378 c-33 -27 -31 -55 7 -97 47 -52 45 -83 -5 -92 -34 -6 -35
-6 -5 -8 39 -1 75 24 75 53 0 12 -16 37 -35 56 -49 48 -46 84 8 88 22 2 37 -1
37 -8 0 -6 5 -8 10 -5 6 3 10 10 10 16 0 14 -84 11 -102 -3z"/>
<path d="M2886 1327 c3 -8 -5 -39 -16 -70 -12 -31 -19 -61 -15 -67 8 -13 32
-13 40 0 3 6 -1 7 -9 4 -20 -8 -20 -5 4 56 24 60 25 90 5 90 -8 0 -12 -6 -9
-13z"/>
<path d="M3006 1326 c3 -7 -2 -41 -10 -74 -19 -70 -19 -72 -8 -72 11 0 35 74
39 123 3 28 0 37 -11 37 -9 0 -13 -6 -10 -14z"/>
<path d="M3088 1331 c10 -6 9 -20 -8 -69 -12 -34 -19 -66 -15 -72 8 -13 32
-13 40 0 3 6 -1 7 -9 4 -20 -8 -20 -9 4 62 22 64 20 84 -7 84 -13 0 -15 -2 -5
-9z"/>
<path d="M3220 1312 c-71 -71 -32 -175 41 -111 l24 20 -28 -17 c-24 -15 -30
-15 -42 -3 -30 30 14 129 58 129 16 0 17 -2 7 -15 -15 -18 -5 -34 11 -18 17
17 3 43 -21 43 -12 0 -34 -13 -50 -28z"/>
<path d="M3394 1322 c-25 -20 -54 -73 -54 -100 0 -40 41 -54 76 -26 18 14 18
14 -5 3 -21 -10 -26 -9 -37 6 -8 10 -11 22 -8 26 3 5 7 19 9 30 6 32 33 69 50
69 18 0 19 -13 4 -43 l-11 -22 22 22 c43 40 0 73 -46 35z"/>
<path d="M3688 1333 c27 -5 29 -38 5 -73 l-16 -25 26 24 c50 46 44 82 -13 79
-23 -1 -24 -1 -2 -5z"/>
<path d="M3908 1333 c15 -6 16 -74 0 -108 -12 -26 -48 -42 -67 -30 -18 10 -12
67 9 102 13 23 15 30 5 27 -38 -15 -60 -105 -33 -132 35 -35 114 16 124 79 6
36 -13 70 -39 68 -9 0 -8 -2 1 -6z"/>
<path d="M4075 1333 c32 -9 36 -25 14 -63 l-21 -35 34 33 c27 26 31 35 22 50
-6 9 -24 18 -40 19 -19 1 -22 0 -9 -4z"/>
<path d="M4238 1320 c-55 -42 -62 -124 -12 -136 49 -12 97 28 110 92 11 58
-48 84 -98 44z m66 -42 c0 -54 -24 -88 -61 -88 -21 0 -23 5 -23 44 0 53 31 99
64 94 18 -3 21 -9 20 -50z"/>
<path d="M3049 1313 c-13 -16 -12 -17 4 -4 9 7 17 15 17 17 0 8 -8 3 -21 -13z"/>
<path d="M2647 1223 c-11 -10 -8 -20 7 -26 10 -4 12 0 9 14 -6 21 -7 22 -16
12z"/>
<path d="M3620 1200 c-6 -4 9 -10 34 -13 44 -6 76 -1 76 12 0 8 -96 10 -110 1z"/>
<path d="M4010 1200 c-6 -4 9 -10 34 -13 44 -6 76 -1 76 12 0 8 -96 10 -110 1z"/>
</g>
</svg>
